<svg width="375" height="146" viewBox="0 0 375 146" fill="none" xmlns="http://www.w3.org/2000/svg">
<path d="M-48.9583 127.591L-29.2564 112.23C-9.55463 97.1001 29.849 66.0343 69.2526 50.904C108.656 35.5437 148.06 35.5437 187.464 26.339C226.867 17.1344 266.271 -1.27502 305.674 -1.27502C345.078 -1.27502 384.482 17.1344 404.183 26.339L423.885 35.5437V146H404.183C384.482 146 345.078 146 305.674 146C266.271 146 226.867 146 187.464 146C148.06 146 108.656 146 69.2526 146C29.849 146 -9.55463 146 -29.2564 146H-48.9583L-48.9583 127.591Z" fill="#101E3A"/>
</svg>
