<svg width="375" height="161" viewBox="0 0 375 161" fill="none" xmlns="http://www.w3.org/2000/svg">
<path d="M375 18.375L359.375 33.7067C343.75 48.8086 312.5 79.8164 281.25 94.9184C250 110.25 218.75 110.25 187.5 119.437C156.25 128.625 125 147 93.75 147C62.5 147 31.25 128.625 15.625 119.437L3.37049e-05 110.25L4.32667e-05 -2.52823e-06L15.625 -1.15132e-06C31.25 2.25587e-07 62.5 2.9794e-06 93.75 5.73322e-06C125 8.48704e-06 156.25 1.12409e-05 187.5 1.39947e-05C218.75 1.67485e-05 250 1.95023e-05 281.25 2.22561e-05C312.5 2.50099e-05 343.75 2.77638e-05 359.375 2.91407e-05L375 3.05176e-05L375 18.375Z" fill="white"/>
</svg>
