<svg width="375" height="161" viewBox="0 0 375 161" fill="none" xmlns="http://www.w3.org/2000/svg">
<path d="M-2.24003e-05 142.625L15.625 127.293C31.25 112.191 62.5 81.1836 93.75 66.0816C125 50.75 156.25 50.75 187.5 41.5625C218.75 32.375 250 14 281.25 14C312.5 14 343.75 32.375 359.375 41.5625L375 50.75L375 161L359.375 161C343.75 161 312.5 161 281.25 161C250 161 218.75 161 187.5 161C156.25 161 125 161 93.75 161C62.5 161 31.25 161 15.625 161L-2.56003e-05 161L-2.24003e-05 142.625Z" fill="white"/>
</svg>
